<svg xmlns="http://www.w3.org/2000/svg" width="119.173" height="63.333" viewBox="0 0 119.173 63.333"><defs><style>.a,.b,.d{fill:none;}.a,.b{stroke:#b7b7b7;}.a{stroke-width:2px;}.c{stroke:none;}</style></defs><g transform="translate(-156.715 -302.157)"><line class="a" x2="83.793" transform="translate(175.789 303.157)"/><g transform="translate(157 302.896)"><g class="a" transform="translate(0 49.998)"><rect class="c" width="118.583" height="12.597"/><rect class="d" x="1" y="1" width="116.583" height="10.597"/></g><path class="a" d="M0,0V11.245" transform="translate(32.795 50.649)"/><line class="a" y2="11.294" transform="translate(82.747 50.649)"/><line class="a" y1="49.953" x2="18.678" transform="translate(0.652 0.262)"/><line class="a" x1="15.203" y1="49.953" transform="translate(102.728 0.697)"/><line class="a" y1="49.953" x2="9.556" transform="translate(32.795 0.262)"/><line class="a" x1="8.253" y1="49.953" transform="translate(74.494 0.262)"/><path class="b" d="M2260.748,4565.275l3.744-9.461a38.027,38.027,0,0,0,0-9.593c-.7-4.68,2.925-11.231,5.264-12.05s6.083-13.687,6.083-13.687l1.053-4.914" transform="translate(-2249.564 -4515.277)"/><path class="b" d="M2283.641,4565.34l4.563-7.456s5.966-3.861,5.03-12.518-2.808-13.687-2.808-14.507,3.627-11.582,3.627-11.582l2.457-3.978" transform="translate(-2262.512 -4515.125)"/><path class="b" d="M2268.827,4590.041c.7-.687,4.446-14.023,4.446-14.842s-1.521-3.276-1.053-7.253,1.638-4.68,2.574-5.5a37.211,37.211,0,0,1,3.042-3.042c1.053-.7,3.627,6.2,3.627,6.2a18.261,18.261,0,0,1,.936,5.967c-.234,2.457-4.094,5.265-6.434,9.71a25.39,25.39,0,0,0-2.691,8.759" transform="translate(-2254.134 -4540.043)"/><path class="b" d="M2314.113,4550.084a30.75,30.75,0,0,1-1.4-13.538c.936-7.487-.468-6.435,2.106-12.167s-.351-5.615,0-6.668.7-1.872.7-1.872" transform="translate(-2278.83 -4515.43)"/><path class="b" d="M2330.45,4565.686s4.106.951,5.171-13.345-.913-7.452-1.673-16.273-1.673-10.19.608-13.688a26.052,26.052,0,0,1,5.931-6.083" transform="translate(-2288.989 -4515.689)"/><path class="b" d="M2351.926,4564.894s-4.411-14.866-1.065-22.318-3.042-14.144-3.042-14.144-3.042-6.54,4.106-9.125,7.148-4.411,7.148-4.411" transform="translate(-2298.45 -4514.896)"/><path class="b" d="M2371.9,4566.478s2.89-6.806,0-16.995-7.6-10.646-8.669-16.122,7-15.665,7-15.665" transform="translate(-2307.479 -4516.481)"/><path class="b" d="M2398.35,4564.065s-7.6-15.665-6.844-20.075.912-7.909,1.369-10.8-1.369-11.407-1.369-11.407l-2.585-6.539" transform="translate(-2322.063 -4515.095)"/><path class="b" d="M2379.323,4530.642s-1.521,1.064-2.129,5.475,1.065,6.083,2.129,9.582a63.05,63.05,0,0,1,1.673,9.125s1.521-9.733,1.825-12.319.456-7.147-.912-9.581-2.586-2.281-2.586-2.281" transform="translate(-2315.356 -4523.801)"/><path class="b" d="M2430.1,4572.094s-3.65-.976-3.194-15.867,3.194-11.978-1.977-20.881-5.932-8.093-5.627-11.006" transform="translate(-2332.264 -4522.688)"/><path class="b" d="M2430.1,4572.094s-3.65-.976-3.194-15.867,3.194-11.978-1.977-20.881-5.932-8.093-5.627-11.006" transform="translate(-2339.648 -4523.123)"/><path class="b" d="M2470.425,4565.05s1.977-2.591-4.866-14.909-1.673-9.277-3.954-15.969,1.673-7.6,1.673-10.646-2.585-6.54-2.585-6.54" transform="translate(-2362.658 -4515.644)"/></g></g></svg>