<svg xmlns="http://www.w3.org/2000/svg" width="34" height="37.864" viewBox="0 0 34 37.864"><g transform="translate(-258 -23)"><g transform="translate(258 41.545)" fill="#fff"><path d="M 33.5 3.363638162612915 L 19.40670967102051 3.363638162612915 L 0.5 3.363638162612915 L 0.5 0.4999981224536896 L 33.5 0.4999981224536896 L 33.5 3.363638162612915 Z" stroke="none"/><path d="M 1 0.9999980926513672 L 1 2.863638162612915 L 19.40670967102051 2.863638162612915 L 33 2.863638162612915 L 33 0.9999980926513672 L 1 0.9999980926513672 M 0 -1.9073486328125e-06 L 34 -1.9073486328125e-06 L 34 3.863638162612915 L 19.40670967102051 3.863638162612915 L 0 3.863638162612915 L 0 -1.9073486328125e-06 Z" stroke="none" fill="#707070"/></g><g transform="translate(258 49.273)" fill="#fff" stroke="#707070" stroke-width="1"><rect width="34" height="3.864" stroke="none"/><rect x="0.5" y="0.5" width="33" height="2.864" fill="none"/></g><g transform="translate(258 57)" fill="#fff" stroke="#707070" stroke-width="1"><rect width="34" height="3.864" stroke="none"/><rect x="0.5" y="0.5" width="33" height="2.864" fill="none"/></g><text transform="translate(261.864 34)" fill="#fff" font-size="10" font-family="SegoeUI, Segoe UI"><tspan x="0" y="0">menu</tspan></text></g></svg>