<svg xmlns="http://www.w3.org/2000/svg" width="26" height="39.904" viewBox="0 0 26 39.904">
  <g id="menu_close" transform="translate(-261.864 -23)">
    <g id="Path_6" data-name="Path 6" transform="translate(266.091 38.836) rotate(45)" fill="#fff">
      <path d="M 28.56173896789551 3.363638162612915 L 16.5880184173584 3.363638162612915 L 0.499998539686203 3.363638162612915 L 0.499998539686203 0.4999981224536896 L 28.56173896789551 0.4999981224536896 L 28.56173896789551 3.363638162612915 Z" stroke="none"/>
      <path d="M 0.9999980926513672 0.9999980926513672 L 0.9999980926513672 2.863638162612915 L 16.5880184173584 2.863638162612915 L 28.06173896789551 2.863638162612915 L 28.06173896789551 0.9999980926513672 L 0.9999980926513672 0.9999980926513672 M -1.9073486328125e-06 -1.9073486328125e-06 L 29.06173896789551 -1.9073486328125e-06 L 29.06173896789551 3.863638162612915 L 16.5880184173584 3.863638162612915 L -1.9073486328125e-06 3.863638162612915 L -1.9073486328125e-06 -1.9073486328125e-06 Z" stroke="none" fill="#707070"/>
    </g>
    <g id="Rectangle_35" data-name="Rectangle 35" transform="translate(263.027 60.172) rotate(-45)" fill="#fff" stroke="#707070" stroke-width="1">
      <rect width="30" height="3.864" stroke="none"/>
      <rect x="0.5" y="0.5" width="29" height="2.864" fill="none"/>
    </g>
    <text id="menu" transform="translate(261.864 34)" fill="#fff" font-size="10" font-family="SegoeUI, Segoe UI"><tspan x="0" y="0">menu</tspan></text>
  </g>
</svg>
